<?xml version="1.0" encoding="UTF-8" standalone="no"?>
<svg width="1024px" height="1024px" viewBox="0 0 1024 1024" version="1.1" xmlns="http://www.w3.org/2000/svg" xmlns:xlink="http://www.w3.org/1999/xlink">
    <!-- Generator: Sketch 39.1 (31720) - http://www.bohemiancoding.com/sketch -->
    <title>1024</title>
    <desc>Created with Sketch.</desc>
    <defs>
        <path d="M150.065536,138.791576 C59.7781738,197.191574 0.0232436321,298.77992 0.0232436321,414.327795 C0.0232436321,568.898248 106.954033,698.488275 250.861882,733.12902 C296.88114,751.385733 327.698613,784.793882 327.698613,822.982407 C327.698613,823.094973 327.698345,823.207497 327.69781,823.319979 C327.69888,823.207483 327.698613,823.094966 327.698613,822.982407 C327.698613,784.916452 358.318578,751.600237 404.092704,733.305278 C548.371804,698.929854 655.667331,569.161641 655.667331,414.327795 C655.667331,297.759034 594.851846,195.397562 503.224793,137.253787 C513.952874,121.06278 520.201,101.643574 520.201,80.764724 C520.201,24.2178971 474.370651,-21.6223633 417.83605,-21.6223633 C377.422654,-21.6223633 342.479145,1.80207054 325.836595,35.8170914 C308.441535,4.56032286 275.076484,-16.585364 236.773661,-16.585364 C180.517185,-16.585364 134.912301,29.0293823 134.912301,85.2980234 C134.912301,104.918692 140.457359,123.243962 150.065536,138.791576 Z" id="path-1"></path>
        <mask id="mask-2" maskContentUnits="userSpaceOnUse" maskUnits="objectBoundingBox" x="0" y="0" width="655.644088" height="822.779545" fill="white">
            <use xlink:href="#path-1"></use>
        </mask>
    </defs>
    <g id="Page-1" stroke="none" stroke-width="1" fill="none" fill-rule="evenodd">
        <g id="1024" stroke="#654338" fill="#654338">
            <g id="Main-Icon" transform="translate(5.000000, 113.000000)">
                <path d="M60.8366556,271.035043 L61.2287116,271.87581 C120.789709,309.446953 194.34713,322.239534 264.676582,303.906319 C221.8261,277.939176 185.878682,239.335691 163.053903,190.387795 C162.459529,189.113155 161.876248,187.836207 161.304021,186.557061 C160.686177,184.922553 160.002556,183.298963 159.252016,181.689425 C143.017383,146.874142 101.620307,131.817583 66.7890596,148.059661 C31.9578121,164.301738 16.8822776,205.691907 33.1169109,240.507191 C39.2953685,253.756936 49.1182422,264.144915 60.8366556,271.035043 Z" id="Left-Wing-Copy" stroke-width="47.4999994" transform="translate(145.664720, 226.840094) rotate(-29.000000) translate(-145.664720, -226.840094) "></path>
                <path d="M784.071674,271.035043 L784.46373,271.87581 C844.024728,309.446953 917.582148,322.239534 987.911601,303.906319 C945.061119,277.939176 909.113701,239.335691 886.288922,190.387795 C885.694547,189.113155 885.111267,187.836207 884.53904,186.557061 C883.921196,184.922553 883.237575,183.298963 882.487035,181.689425 C866.252402,146.874142 824.855326,131.817583 790.024078,148.059661 C755.192831,164.301738 740.117296,205.691907 756.35193,240.507191 C762.530387,253.756936 772.353261,264.144915 784.071674,271.035043 Z" id="Left-Wing-Copy-2" stroke-width="47.4999994" transform="translate(868.899738, 226.840094) scale(-1, 1) rotate(-29.000000) translate(-868.899738, -226.840094) "></path>
                <g id="Body-Copy" transform="translate(178.000000, 0.000000)" stroke-width="100.700005" stroke-linecap="round" stroke-linejoin="round">
                    <use id="Combined-Shape" mask="url(#mask-2)" xlink:href="#path-1"></use>
                </g>
            </g>
        </g>
    </g>
</svg>